<?xml version="1.0" encoding="UTF-8" standalone="no"?>
<!-- Generator: Adobe Illustrator 23.0.3, SVG Export Plug-In . SVG Version: 6.00 Build 0)  -->

<svg
   xmlns:dc="http://purl.org/dc/elements/1.1/"
   xmlns:cc="http://creativecommons.org/ns#"
   xmlns:rdf="http://www.w3.org/1999/02/22-rdf-syntax-ns#"
   xmlns:svg="http://www.w3.org/2000/svg"
   xmlns="http://www.w3.org/2000/svg"
   xmlns:sodipodi="http://sodipodi.sourceforge.net/DTD/sodipodi-0.dtd"
   xmlns:inkscape="http://www.inkscape.org/namespaces/inkscape"
   version="1.1"
   id="Icons"
   x="0px"
   y="0px"
   viewBox="0 0 32 32"
   style="enable-background:new 0 0 32 32;"
   xml:space="preserve"
   sodipodi:docname="bulbOn.svg"
   inkscape:version="0.92.4 (5da689c313, 2019-01-14)"><metadata
   id="metadata17"><rdf:RDF><cc:Work
       rdf:about=""><dc:format>image/svg+xml</dc:format><dc:type
         rdf:resource="http://purl.org/dc/dcmitype/StillImage" /><dc:title /></cc:Work></rdf:RDF></metadata><defs
   id="defs15" /><sodipodi:namedview
   pagecolor="#ffffff"
   bordercolor="#666666"
   borderopacity="1"
   objecttolerance="10"
   gridtolerance="10"
   guidetolerance="10"
   inkscape:pageopacity="0"
   inkscape:pageshadow="2"
   inkscape:window-width="1920"
   inkscape:window-height="986"
   id="namedview13"
   showgrid="false"
   inkscape:zoom="20.85965"
   inkscape:cx="9.860545"
   inkscape:cy="18.603727"
   inkscape:window-x="-11"
   inkscape:window-y="-11"
   inkscape:window-maximized="1"
   inkscape:current-layer="Icons" />
<style
   type="text/css"
   id="style2">
	.st0{fill:none;stroke:#000000;stroke-width:2;stroke-linecap:round;stroke-linejoin:round;stroke-miterlimit:10;}
</style>
<path
   class="st0"
   d="M24,12c0-4.7-4.1-8.5-8.9-7.9c-3.5,0.4-6.4,3.2-7,6.7c-0.4,2.6,0.5,5.1,2.1,6.8c1.2,1.2,1.8,2.8,1.8,4.5v0h8v0  c0-1.6,0.6-3.3,1.7-4.4C23.1,16.1,24,14.2,24,12z"
   id="path4"
   style="fill:#caff1c;fill-opacity:1;stroke:#444444;stroke-opacity:1" />

<path
   class="st0"
   d="M19,25.5c0,1.7-1.3,3-3,3s-3-1.3-3-3"
   id="path8"
   style="fill:#caff1c;fill-opacity:1;stroke:#444444;stroke-opacity:1" /><line
   class="st0"
   x1="20"
   y1="25"
   x2="12"
   y2="25"
   id="line6"
   style="stroke:#444444;stroke-opacity:1" />
<path
   class="st0"
   d="M18.5,15L16,22l-4-11l0,0c2.4,1.8,5.6,1.8,8,0l0,0"
   id="path10"
   style="stroke:#444444;stroke-opacity:1" />
</svg>